<?xml version="1.0" encoding="utf-8"?>
<!-- Generator: Adobe Illustrator 24.3.0, SVG Export Plug-In . SVG Version: 6.00 Build 0)  -->
<svg version="1.1"
	 id="svg22002" xmlns:cc="http://creativecommons.org/ns#" xmlns:dc="http://purl.org/dc/elements/1.1/" xmlns:inkscape="http://www.inkscape.org/namespaces/inkscape" xmlns:ns1="http://sozi.baierouge.fr" xmlns:rdf="http://www.w3.org/1999/02/22-rdf-syntax-ns#" xmlns:sodipodi="http://sodipodi.sourceforge.net/DTD/sodipodi-0.dtd" xmlns:svg="http://www.w3.org/2000/svg"
	 xmlns="http://www.w3.org/2000/svg" xmlns:xlink="http://www.w3.org/1999/xlink" x="0px" y="0px" viewBox="0 0 318.9 248"
	 style="enable-background:new 0 0 318.9 248;" xml:space="preserve">
<style type="text/css">
	.st0{fill:#D38D5F;}
	.st1{fill:url(#path22009-1_2_);}
	.st2{opacity:0.7598;fill:#A05A2C;enable-background:new    ;}
	.st3{fill:#9E5B2F;}
</style>
<g id="layer1" transform="translate(0 56.693)">
	<g id="g24194" transform="matrix(.98889 0 0 1.0198 181.32 147.95)">
		<g id="g24124" transform="matrix(.87329 0 0 .87329 -219.66 -70.422)">
			<path id="path22919" class="st0" d="M221.7-119.6c-32.7-0.5-66,14.4-83.6,42.6c3.3,5.8-14.5,19.6-6.7,8
				c-1.2-13.9-11.6,8.1-12.6,13c-5.3,14.8-6.1,30.8-5.4,46.4c-9.6,10.9,19.2,9.9,7.7-0.9c-6.1-54,45.5-105.8,99.5-100
				c40.3-0.7,65.9,16.2,83.4,42.1c-4.5-16-9.9-20.1-27.6-33.2C260.8-113.3,241.3-119.2,221.7-119.6L221.7-119.6z M322.3-70.7
				c-4.7,0.3-8.1,7-11.7,13.3c5.4-4.3,17.7-4,15.5-12.2C324.7-70.5,323.4-70.8,322.3-70.7L322.3-70.7z M306.9-69.6
				c-0.1-0.1,0.1,0.2,1,1.6C307.4-68.8,307-69.5,306.9-69.6z M310.5-57.4c-0.9,0.8-1.7,1.7-2.1,2.8
				C308.9-54.1,310.2-56.8,310.5-57.4z M308,1.2c-1.5,0.2-4.9,5.5,0.4,1.9C308.7,1.6,308.5,1.1,308,1.2z M133.1,39
				c-1.9,0.1-6.9,6.5-0.7,5C134.1,40.2,134,39,133.1,39z M144,50.2c1,2.7,2.3,5.2,3.8,7.5c0.3-0.2,1-0.3,2.1-0.3
				c2.9,3.1,0.9,3-0.8,2.2c10.8,14.8,30.7,21.2,48.2,25c33.9,6.3,70.4-5.6,94.4-30.4c-28.4,9.4-54.8,27.8-85.7,27.4
				C181.9,78.9,165.9,58.4,144,50.2L144,50.2z M149.1,59.6c-0.5-0.6-0.9-1.3-1.3-1.9C147.1,58.2,148,59.1,149.1,59.6z M307.7,51.9
				c-1.8,0-4.7,1.1-1.1,2.2C309.9,52.5,309.2,51.9,307.7,51.9z M191.6,96.7c-0.2,0-0.4,0.2-0.8,1C191.5,102.2,192.4,96.8,191.6,96.7
				z M196.1,112.8c-0.8-0.1-1.5,0.4-1.2,2.2C200.4,116,197.9,113,196.1,112.8z"/>
			
				<linearGradient id="path22009-1_2_" gradientUnits="userSpaceOnUse" x1="245.3893" y1="125.2939" x2="422.7694" y2="243.0736" gradientTransform="matrix(0.8636 0 0 -0.8906 -16.7999 112.9233)">
				<stop  offset="0" style="stop-color:#A05A2C"/>
				<stop  offset="1" style="stop-color:#552200;stop-opacity:0"/>
			</linearGradient>
			<path id="path22009-1" class="st1" d="M231-133.1c0.2,0.7,0.2,1.7,0,2.5c1.2,0,2.3,0.1,3.5,0.2
				C233.4-131.5,232.3-132.5,231-133.1L231-133.1z M239.8-121c-2.5,0-5.3,0.5-8.3,2.1c3.1,1.2,6.2,2.4,9.2,3.6c1,1.6,2,3,3,4.2
				c5.1,1,10,2.4,14.8,4.2c1.1,0.2,2.2,0.3,3.3,0.4c0,0,0,0,0,0c3.7,1.6,7.3,3.1,11,4.7c3.2,1.4,6,2.8,8.5,4
				c0.2,0.4,0.5,0.8,0.7,1.3c10.6,9.7,27.4,18.3,27.6,35.1c2.4,4.8,4.5,9.8,6.1,15c0.5,0.2,1.1,0.2,1.6,0c1.8,5.8,3.2,11.8,3.9,17.8
				c0.7,1.6,1.3,2.6,1.8,3c-1,2.8-1.9,4.5-3.4,2.5c0.1,1.4,0.1,2.8,0.1,4.2c0,1.3,0,2.6-0.1,4c1.2,2,2.5,4.1,3.7,5.9
				c-1.1-1.2-2.7-1.6-4-1.3c-0.2,2.5-0.5,5.1-1,7.5c0.1,0.1,0.1,0.2,0.2,0.3c-1.1,2.5-0.5,6.1,0.3,9.9c-0.5,3.2-1.3,6.1-2.3,8.9
				c1.6,0.1,3.1,0.7,4.2,2.3c0,0.2,0,0.3,0,0.5c0.9-1.5,1.8-2.9,2.8-4.4c1.7-3.7,3.4-7.5,4.9-11.3c0.4-2,0.8-4.1,1.1-6.2
				c-0.5-3.5-1.5-7.1-2-10.7c0.3-5.4,0.2-10.8-0.4-16.3c0.7-1.2,1.6-2.4,2.7-3.7c-0.2-1.2-0.3-2.3-0.5-3.5c0.7-1.1,1.4-2.1,2.3-2.8
				c-3.9-27.3-7.5,19.1-10.8-15.8c-7.1-18.2-19.1-33.3-33.9-44.2c-1.3-3-2.9-5.8-5.2-8c-2.2-1.4-4.4-2.7-6.7-3.9
				c-1.1-0.3-2.3-0.6-3.5-0.7c-2.6,0.6-4.9,0.6-7.1,0.3c-2.9-1.1-5.9-2.1-9-3c0,0,0-0.1-0.1-0.1C250.3-117.7,245.5-120.9,239.8-121
				L239.8-121z M323.7,14.8c-1,2.2-2,4.3-3,6.4c-0.2,1.2-0.5,2.3-1.1,3.3c-0.1-0.2-0.1-0.4-0.2-0.6c-5.2,10.5-10.7,20.1-15.3,27.4
				c10.2-11.3,17.9-24.9,22.4-39.9c-0.6,0.7-1.2,1.5-2,2.2C324.2,14,324,14.4,323.7,14.8L323.7,14.8z M227.4-118.9
				c-9.2,0.1-18.5,1.5-27.7,4.3c-0.1,0-0.2,0.1-0.2,0.1c-4.4,0.6-8.8,1.5-13,3.2c-7.1,4-9,2.7-9.5-0.5
				c-10.2,5.4-19.4,12.4-27.2,20.6c0.5,1.1,1,2,1.3,2.9c-7.6,5.6-10.9,18-17.4,26.1c-2.8,1.7-4.1,2.6-4.7,2.9
				c-5.2,12.4-8.1,26.1-8.1,40.4c0,6.8,0.7,13.5,1.9,19.9c2,0.6,3.8,1.3,5.3,1.5c1.5,14.1,9.1,26.1,11.8,28.2c0.2,0.6,0.5,1.3,0.8,2
				c-1.7,0.2-3.6,0.6-5.6,1.1c5.1,8.8,11.6,16.8,19,23.8c0-0.1,0.1-0.2,0.1-0.3c1.8-0.8,3.4-0.5,4.6,0.2c0.6,0.5,1.3,1,2,1.5
				c1.5,1.5,2.1,2.8,1.7,1.2c3.5,2.3,7.4,4.2,11.8,5.6c0.1,0.2,0.1,0.4,0.1,0.6c-2.9-0.7-5.8-1.6-8.6-2.8c-0.7,0.5-1.6,1.1-2.5,1.8
				c2.9,2.2,6,4.2,9.2,6.1c-8,3.6,63.2,16.4,98.5-0.8c-34.2,21.5-68.7,9.4-88.9,7c35.9,18.2,88.3,4.4,114.8-19.1c0,0,0,0,0,0
				c3.6-6.6,10.6-18.3,22.1-36.4c-1.5-3.4-4.1-4.2-7-3.4c-2.8,6.3-6.2,12.2-10.2,17.7c0.2,0.9,0.6,1.7,1.1,2.6
				c-3.3,4-6.7,7.8-9.9,11.9c-3.9-4.1-45.5,23.3,6.6-2c-14.5,12.6-45.9,25.1-71.3,26c0,0,0,0,0,0.1c-1.6,1.1-2.7,0.6-3.6-0.1
				c-0.9,0-1.8,0-2.6,0c-0.1,0.2-0.2,0.3-0.3,0.5c0-0.2-0.1-0.4-0.2-0.6c-7.8-0.4-15.2-1.7-22.4-3.8c-0.1,0.6,0.1,1.4,0.3,2.2
				c-0.4-0.1-0.8-0.3-1.3-0.4c-6-3.2-12.4-4.2-18.8-5.4c-9.6-6.6-18.1-18.6-34-41.8c-16.1-16.5-16-40.9-2.4-53.5
				c-2.8-0.3-5.9-1.4-9.9-1.7c-1.2-17.7,18.2-38.1,26.2-56.5c1.8-3.8,3.4-6,4.9-7.1c33.1-14.4,71.8-14,108,3.5
				c-23.7-24.3-73.9-17.3-71.2-19.4c-0.4,0-0.9-0.1-1.3-0.1c-0.1,0-0.2,0-0.3,0c6.2-1.8,12.6-3,19.3-3.5c0-0.1,0-0.1,0-0.2
				c3.7-0.8,6.9-2.4,8.8-6.2C227.5-118.8,227.4-118.9,227.4-118.9L227.4-118.9z M188.4-105c-1.9,1.4-3.8,3.1-5.7,5.1
				c-1.6,0.3-3.5,0.5-5.3,0.5C180.9-101.5,184.6-103.4,188.4-105L188.4-105z M130.7-63.4c-0.4,0.8-0.7,1.6-1.1,2.4
				C130-61.6,130.4-62.5,130.7-63.4z M323.5-8.9c0.4,0.4,0.7,1,1,1.6C324.2-7.8,323.8-8.3,323.5-8.9z M324.5-7.2
				c1.4,2.3,2,3.9,0.5,4.2C325.1-4.7,324.9-6.1,324.5-7.2z"/>
			<path id="path23416" class="st2" d="M329.1-109.5c-17.7-0.1-1.3-21-12-21.5c-6.9,3.1,10.1,14.8-1,28.5c-0.7,2.9-3.3,3.2-5.8,2.6
				c-2.9,0.1-2.7,3.6-3.7,5.6c-0.7,2.3-1.3,4.9-0.7,7.3c0.9,2.4,6.1-0.7,4.7,2.4c1.9,2.8,2.4-3.1,4.8-0.8c2.7,0.6,4.3,3.2,2.7,5.8
				c-0.9,1.8-3.2,4.3-5.3,2.8c-7.7,1.7-26.9-1-28.6,4.7c7,14.6,16.3-9.8,25,2c1,2.3,1.6,5.7,4.6,6.2c18.9,4.8-0.9,14.3,7.5,17.9
				c4.3-1.5-2.9-13.7,3.9-14.6c6.1,6.3,3.5,0.4,4.2-1.2c2.7-1.3,6-0.4,8.5-2.3c0.8-3.3,1.3-1.2,3-4.5c8.7-0.3,8.7,12,20.2,12.2
				c1.8-15.9-23.7-4.2-9.5-18.9c1.1-2,4.3-2.7,2.3-5.1c-0.5-1.6-1.7-3.4-3.3-1.9c-2.8-1.5,2-2.5,2.6-4c2.1-2.1,0.2-4.6-0.5-6.8
				c-16.9-17.5,9.4-8.8,5.2-15.8c-8.4-8.4-5.6,13.5-20.6,2c-2.5-0.6-4.9-1.3-7.2-2.5C329.7-109.5,329.4-109.5,329.1-109.5
				L329.1-109.5z"/>
			<path id="path23438" class="st3" d="M123.3,34C123.9,34.5,122.4,34.3,123.3,34z M130.7,34C132.8,37,127.3,36,130.7,34z
				 M150.5,28.4C155.7,29.4,147.2,30.1,150.5,28.4z M149.5,15.7c4.3,0.9,0.1,7.4-0.5,2C149.1,17,149.4,16.3,149.5,15.7z M126.5,13.9
				C127.6,14.8,126.3,12.7,126.5,13.9z M124.8,11.1c3.1,0.2,2.8,5.3,1.3,4C126.6,12.9,120.8,12.4,124.8,11.1z M128.7,9.2
				C132.4,9.4,126.4,11.3,128.7,9.2z M89.5,7.2C91,10.1,86.7,9.9,89.5,7.2z M129.6,8.3C128.6,7.3,129.3,9.2,129.6,8.3z M130.3,7.8
				C133.5,7.6,133.4,5.2,130.3,7.8z M129.2,7.8C130.2,9.3,130.4,6.3,129.2,7.8z M128.9,7.6C128.9,8.4,129.8,7,128.9,7.6z M129,4.7
				c7.4-2.1-0.4,9.8-0.1,0.8L129,4.7z M120.8,0.1C122.4-0.4,120.6,1.4,120.8,0.1z M124.3,0.4C124.4,0.9,124.8-0.1,124.3,0.4z
				 M124.2-0.3C127.1-1.1,123.9,2.4,124.2-0.3z M150.9-1.6C154.3-2,147.7,0,150.9-1.6z M157.7-8.3C158.7-7.3,156.2-8.3,157.7-8.3z
				 M123.8-8.7C127.2-7.5,125.4-4.4,123.8-8.7z M159.6-9.2C161-8.1,159.7-7.3,159.6-9.2z M159.2-9.3C159.6-9.9,159.5-8.7,159.2-9.3z
				 M188.6-9.5C190-9.2,188-8.6,188.6-9.5z M159.6-10C160.6-9.4,158.4-9.3,159.6-10z M92.2-10.7C89.4-9,90.5-9.2,92.2-10.7z
				 M121.6-11.1C126.4-8,117.9-10.3,121.6-11.1z M123.8-11.2C127.6-10.2,122.5-7.2,123.8-11.2z M160.5-5.5
				C160.5-7,159.2-5.7,160.5-5.5z M159.3-1.1C159.8-3.4,159.1-4.4,159.3-1.1z M153.3,0C153.4-0.1,153.1,0,153.3,0z M160.7-0.1
				C161.7-0.6,159.1-0.1,160.7-0.1z M159.2,0.2C160.5,0.5,158.8-1.1,159.2,0.2z M159.2,0.5C159.7-0.3,158.2,0.7,159.2,0.5z
				 M159.2,0.9C160.1,0.9,158.5,0.2,159.2,0.9z M172.1-7.9C175.9-6.1,175.7-11.3,172.1-7.9z M158.1-11
				C158.9-9.9,159.3-12.1,158.1-11z M158.1-12C161.9-12.4,158-8.1,158.1-12z M130-13.5C131.2-10.8,127.2-14.1,130-13.5z M129.1-14.3
				C129.5-14.4,128.9-14,129.1-14.3z M136-15.3C136-14.3,134.8-15.7,136-15.3z M129.1-18.3C128.7-15.9,131.3-16.2,129.1-18.3z
				 M129.1-18.6C133.5-16.3,127.9-13.6,129.1-18.6z M117.4-20.2C117.7-18.9,116.3-18.6,117.4-20.2z M129.5-25.5
				C130.1-24.6,128.1-24.2,129.5-25.5z M134-26.8C137.9-24.3,129.7-23.2,134-26.8z M133-27.7C134.2-27.3,131.3-27.3,133-27.7z
				 M129.3-27.7C130.2-26.3,127.9-26.5,129.3-27.7z M130.1-29.9C129.8-25.3,134.3-29.9,130.1-29.9z M129.8-31
				c4.4-0.5-0.8,7.2,0.1,1.5C130-30,129.9-30.5,129.8-31z M179.7-31.6C179.9-28.9,178.7-28.3,179.7-31.6z M138.1-32.8
				C140-29,134.4-29.7,138.1-32.8z M183.4-34.2C184.8-31.9,183.7-32.2,183.4-34.2z M134.1-34.5C137.3-36.5,134.6-30.6,134.1-34.5z
				 M131.8-34.5C132-34.9,132-34.2,131.8-34.5z M130-34.6C130.4-35.2,130.1-34.1,130-34.6z M180.4-37.7c0.7,1.2-0.3,3.8-0.2,1
				L180.4-37.7z M160.1-37.7C161.6-36.5,158.5-36.2,160.1-37.7z M176-40.7c4.2-1.3,3.1,8.4,0.8,2.1C176.4-39.3,176.1-39.9,176-40.7z
				 M107.5-42.5c3.9,0.7,4.8,12,0.1,6.5C106.4-37.9,105.7-40.7,107.5-42.5z M119.5-43.8C123.9-44.7,120.1-38.7,119.5-43.8z
				 M117.4-47.8C116.4-46.5,116-48.1,117.4-47.8z M155.1-46C154-44.3,156.2-46.6,155.1-46z M155.4-50.8c0.3,4.2,4.1,7.3,4.2,10.9
				c-3.8,5.2-3.1-7.9-5.8-1.6c-2.5,2.2,0.1-4.7,1.3-5.9C155.5-48.4,155.7-49.7,155.4-50.8L155.4-50.8z M143.4-52
				C143.2-51.9,143.2-51.9,143.4-52z M158.2-52.8C157.4-50.8,156-53.8,158.2-52.8z M134.2-52.1C134.2-52.1,134.2-52.1,134.2-52.1z
				 M145.3-53.5C145-53.4,145.6-53.4,145.3-53.5z M147.6-53.2C149.8-51.5,148.8-55.9,147.6-53.2z M146.2-54.3
				C148-54.2,147.8-56,146.2-54.3z M144.3-56.1C143.9-52.4,147.9-54.4,144.3-56.1z M106.2-28.4c-0.1,3.9,5.1,0.3,0.9,0L106.2-28.4z
				 M94.4-12.2C94.3-12.1,94.3-12.1,94.4-12.2z M105.3-20.7c-3.7-5.7-10.2,3.8-10.1,7.1C99.3-13.2,101.6-19,105.3-20.7z M107.3-18.8
				c2.5-1.3,5.6,5.7,4,0.2c1.3,1.8,6.9,4.4,3.5,0.3c-3.1-5.1,5.3-6,7.1-7.2c-1.8-2.1-0.8-5.6-0.8-6.6c-5.5-0.4-7.2,8-13,7.1
				c-4.6-2.6-5.2-13.5-11.8-11.4c2.3,3.6,2.4,12.4,8.7,10.4C109.1-24.8,103.9-20,107.3-18.8L107.3-18.8z M111.2-3.3
				C111.1-4.9,110-3.4,111.2-3.3z M123.2,38.7C122.8,40.5,123.7,40.1,123.2,38.7z M150,38.8C153.4,43.7,154.5,32.5,150,38.8z
				 M160.5,36.4c-4.1,0.4,1.6,5.9,0,0.7C160.5,36.9,160.5,36.7,160.5,36.4z M167,37.3C168.4,38.2,168,37.1,167,37.3z M168.4-42.1
				c-0.9,3.2,3.5,3.3,0.5,0.5L168.4-42.1z M167.9-51.1c-1.7,4.2,8.1,6.7,4.2,1.4C170.9-50.7,169.3-50.8,167.9-51.1z M163.5-55.4
				c1,3.8,10.1,1.6,4.2-0.8C166.2-56.7,164.6-56.5,163.5-55.4z M152.8-60.1c-1.9,2.3-2.3,8.9,1.9,4.7
				C156.3-57,154.6-59.7,152.8-60.1z"/>
		</g>
	</g>
</g>
</svg>
