<svg xmlns="http://www.w3.org/2000/svg" viewBox="0 0 107.33 98.54"><defs><style>.cls-1{fill:#9e3333;}.cls-2{fill:#231f20;}</style></defs><g id="Layer_2" data-name="Layer 2"><g id="Layer_1-2" data-name="Layer 1"><path class="cls-1" d="M53.69,11.21a30,30,0,0,0-42.42,0h0a30,30,0,0,0,0,42.43L53.69,96.07h0L96.12,53.64a30,30,0,0,0,0-42.43h0a30,30,0,0,0-42.43,0"/><path class="cls-2" d="M55.46,9.45C44.41-1.47,26.48-3.26,13.75,5.87A32.49,32.49,0,0,0,3.07,46.26c3,6.57,8.67,11.39,13.7,16.42L37.56,83.47C42.27,88.18,46.88,93,51.7,97.61l.22.23a2.53,2.53,0,0,0,4.18-1.11h0l-.64,1.1L67.28,86,88.4,64.9l7.44-7.44A51.69,51.69,0,0,0,101.57,51c9-12.68,7.24-30.63-3.68-41.57S69.14-3.2,56.47,5.66a35.79,35.79,0,0,0-4.55,3.78c-2.29,2.27,1.25,5.81,3.54,3.54,9.91-9.79,26.23-10.82,37-1.74a27.94,27.94,0,0,1,9.71,17.41A27.87,27.87,0,0,1,97.56,48a41.37,41.37,0,0,1-5.1,5.72l-7,7L65,81.26c-4.29,4.29-8.78,8.45-12.9,12.9a2.88,2.88,0,0,0-.78,1.24l4.18-1.1-11-11L24,62.82c-3.73-3.73-7.52-7.43-11.21-11.21C3.1,41.68,2.36,25.34,11.41,14.74A27.46,27.46,0,0,1,48,9.68a27.81,27.81,0,0,1,4,3.3c2.3,2.27,5.83-1.27,3.54-3.53Z"/></g></g></svg>