<?xml version="1.0" encoding="utf-8"?>
<!-- Generator: Adobe Illustrator 16.0.4, SVG Export Plug-In . SVG Version: 6.00 Build 0)  -->
<!DOCTYPE svg PUBLIC "-//W3C//DTD SVG 1.1//EN" "http://www.w3.org/Graphics/SVG/1.1/DTD/svg11.dtd">
<svg version="1.1" id="Layer_1" xmlns="http://www.w3.org/2000/svg" xmlns:xlink="http://www.w3.org/1999/xlink" x="0px" y="0px"
	 width="1000px" height="1000px" viewBox="0 0 1000 1000" enable-background="new 0 0 1000 1000" xml:space="preserve">
<g>
	<g>
		<g>
			<path fill="#FFFFFF" d="M949.998,793.886c-0.001,16.946-1.797,31.574-4.99,47.245c-5.618,27.56-15.823,54.854-35.51,75.102
				c-17.785,18.292-42.021,26.388-67.429,26.388c-7.801,0-15.602,0-23.402,0c-40.55,0-81.099,0-121.648,0
				c-60.881,0-121.763,0-182.644,0c-65.692,0-131.384,0-197.076,0c-54.983,0-109.967,0-164.95,0c-28.754,0-57.509,0-86.263,0
				c-1.254,0-3.582,0.428-4.81-0.093c-4.004-1.697-3.775-6.037-3.775-9.629c0-9.805,0-19.609,0-29.414c0-43.899,0-87.799,0-131.699
				c0-62.609,0-125.22,0-187.829c0-64.908,0-129.815,0-194.723c0-50.793,0-101.586,0-152.379c0-21.289-0.184-42.587,0.02-63.875
				c0.341-35.788,10.009-72.606,37.483-96.763c4.445-3.908,9.38-7.329,15.094-10.63c2.531-1.463,5.135-2.796,7.773-4.052
				c3.387-1.612,3.665-1.699,7.13-3.004c4.867-1.834,9.867-3.311,14.925-4.515c2.13-0.507,4.275-0.945,6.428-1.342
				c0.99-0.183,1.983-0.348,2.978-0.507c0.474-0.076,0.948-0.146,1.423-0.216c2.161-0.321-1.051,0.128,0.272-0.043
				c16.081-2.086,32.831-0.919,48.976-0.919c44.201,0,88.401,0,132.602,0c62.437,0,124.874,0,187.31,0c65.153,0,130.306,0,195.458,0
				c52.349,0,104.697,0,157.047,0c24.024,0,48.049,0,72.073,0c6.892,0,5.507,10.21,5.507,14.956c0,12.713,0,25.427,0,38.14
				c0,48.355,0,96.71,0,145.064c0,64.375,0,128.75,0,193.125c0,62.934,0,125.869,0,188.803c0,44.033,0,88.066,0,132.101
				C949.998,773.412,949.998,783.648,949.998,793.886c0,9.673,15,9.673,15,0c0-21.207,0-42.414,0-63.622
				c0-51.981,0-103.963,0-155.943c0-65.295,0-130.59,0-195.885c0-61.148,0-122.296,0-183.445c0-39.541,0-79.081,0-118.622
				c0-6.211,0-12.422,0-18.634c0-11.71-8.742-21.748-20.654-21.748c-2.606,0-5.213,0-7.819,0c-32.882,0-65.764,0-98.646,0
				c-57.171,0-114.342,0-171.513,0c-65.939,0-131.879,0-197.819,0c-59.188,0-118.376,0-177.565,0c-36.917,0-73.834,0-110.751,0
				c-20.32,0-39.765,0.872-59.219,8.077C93.865,54.12,71.572,73.482,58.478,99.408C46.131,123.854,42.5,151.432,42.5,178.526
				c0,27.684,0,55.369,0,83.053c0,54.929,0,109.858,0,164.787c0,65.761,0,131.522,0,197.283c0,60.182,0,120.362,0,180.543
				c0,38.188,0,76.377,0,114.564c0,5.718,0,11.437,0,17.154c0,11.899,8.935,21.71,20.899,21.71c2.763,0,5.525,0,8.288,0
				c33.361,0,66.722,0,100.083,0c57.417,0,114.833,0,172.25,0c65.953,0,131.906,0,197.858,0c58.97,0,117.938,0,176.907,0
				c36.465,0,72.93,0,109.395,0c6.548,0,13.113,0.125,19.659-0.089c35.079-1.144,65.393-18.081,85.365-46.722
				c23.001-32.984,31.791-77.178,31.793-116.924C964.999,784.213,949.999,784.213,949.998,793.886z"/>
		</g>
	</g>
	<rect x="479.998" y="247.001" fill="none" width="852" height="1102"/>
	
		<text transform="matrix(1 0 0 1 479.998 956.9922)" fill="#FFFFFF" stroke="#FFFFFF" font-family="'MyriadPro-Regular'" font-size="1000">f</text>
</g>
</svg>
