<?xml version="1.0" encoding="utf-8"?>
<!-- Generator: Adobe Illustrator 16.0.4, SVG Export Plug-In . SVG Version: 6.00 Build 0)  -->
<!DOCTYPE svg PUBLIC "-//W3C//DTD SVG 1.1//EN" "http://www.w3.org/Graphics/SVG/1.1/DTD/svg11.dtd">
<svg version="1.1" id="Layer_1" xmlns="http://www.w3.org/2000/svg" xmlns:xlink="http://www.w3.org/1999/xlink" x="0px" y="0px"
	 width="530px" height="530px" viewBox="0 0 530 530" enable-background="new 0 0 530 530" xml:space="preserve">
<g>
	<g>
		<path fill="#FFFFFF" d="M49.666,251.75c35.5,0,40.5-19.5,40.5-37c0-14-2-28-4-42s-4-27.5-4-41.5c0-46,30-65.5,72.5-65.5h10.5v27.5
			h-9c-29.5,0-39.5,16-39.5,43c0,11.5,1.5,23.5,3.5,35.5c2,12.5,3.5,24.5,3.5,38c0.5,32-13.5,48.001-36,54.001v1
			c22.5,5.5,36.5,22.5,36,54.499c0,13.5-1.5,26-3.5,38c-2,12.5-3.5,24-3.5,36c0,28,11.5,43.5,39.5,43.5h9l6.333,26.838
			l-16.833,0.662c-41.5,0-72.5-18-72.5-68.5c0-13.5,2-27.5,4-41s4-27,4-40.499c0-15.5-5-37-40.5-37V251.75L49.666,251.75z"/>
	</g>
	<g>
		<path fill="#FFFFFF" d="M480.334,277.251c-35.5,0-40.5,21.5-40.5,37c0,13.499,2,26.999,4,40.499s4,27.5,4,41
			c0,50.5-31.5,68.5-72.5,68.5l-14.834-0.662l4.334-26.838h8.5c28-0.5,40-15.5,40-43.5c0-12-2-23.5-3.5-36c-2-12-4-24.5-4-38
			c0-31.999,14-48.999,36-54.499v-1c-22-6-36-22.001-36-54.001c0-13.5,2-25.5,4-38c1.5-12,3.5-24,3.5-35.5c0-27-10.5-42.5-39.5-43
			h-9v-27.5h10c42.5,0,73,19.5,73,65.5c0,14-2,27.5-4,41.5s-4,28-4,42c0,17.5,5,37,40.5,37V277.251z"/>
	</g>
	<path fill="none" stroke="#FFFFFF" stroke-width="30" stroke-miterlimit="10" d="M243.35,360.972
		c-30.587,5.505-54.83,20.479-70.757,47.145c-9.981,16.711-15.26,36.012-15.26,55.472"/>
	<path fill="none" stroke="#FFFFFF" stroke-width="30" stroke-miterlimit="10" d="M374,463.588
		c0.5-52.088-35.5-94.088-86.432-102.86"/>
	<ellipse fill="none" stroke="#FFFFFF" stroke-width="14" stroke-miterlimit="10" cx="265.667" cy="361.255" rx="27.667" ry="16"/>
	<path fill="none" stroke="#FFFFFF" stroke-width="15" stroke-miterlimit="10" d="M141.125,355.76
		c0-7.031,22.221-16.859,48.564-12.732c20.417,3.201,48.564,9.078,48.564,12.732c0,7.031-21.438,9.624-48.564,12.731
		C163.126,371.536,141.125,362.791,141.125,355.76z"/>
	<path fill="none" stroke="#FFFFFF" stroke-width="15" stroke-miterlimit="10" d="M389.463,355.434
		c0-7.033-22.221-16.86-48.565-12.731c-20.416,3.198-48.562,9.077-48.562,12.731c0,7.031,21.438,9.623,48.562,12.73
		C367.461,371.209,389.463,362.465,389.463,355.434z"/>
</g>
<g>
	<g>
		<path fill="#FFFFFF" d="M227.5,458c0.077-17.828,2.05-35.708,7.892-52.63c1.797-5.207,4.187-10.683,7.616-15.044
			c1.278-1.625,3.138-3.444,4.19-4.165c1.826-1.25,8.833-4.603,9.757-4.63c9.651-0.282,3.722-12.059-5.957-11.776
			c-14.714,0.431-23.238,14.624-28.203,26.76c-7.886,19.272-10.208,40.818-10.297,61.485C212.458,467.675,227.458,467.671,227.5,458
			L227.5,458z"/>
	</g>
</g>
<g>
	<g>
		<path fill="#FFFFFF" d="M315.334,458c-0.089-20.668-2.411-42.213-10.297-61.485c-4.965-12.136-13.488-26.329-28.203-26.761
			c-9.679-0.283-12.234,11.215-2.584,11.496c0.779,0.021,4.324,3.711,5.721,4.496c1.557,0.875,2.703,2.098,4.247,3.85
			c3.865,4.383,6.271,10.349,8.226,15.774c6.037,16.763,7.814,34.925,7.892,52.63C300.376,467.671,315.376,467.675,315.334,458
			L315.334,458z"/>
	</g>
</g>
</svg>
