<?xml version="1.0" encoding="utf-8"?>
<!-- Generator: Adobe Illustrator 16.0.4, SVG Export Plug-In . SVG Version: 6.00 Build 0)  -->
<!DOCTYPE svg PUBLIC "-//W3C//DTD SVG 1.1//EN" "http://www.w3.org/Graphics/SVG/1.1/DTD/svg11.dtd">
<svg version="1.1" id="Layer_1" xmlns="http://www.w3.org/2000/svg" xmlns:xlink="http://www.w3.org/1999/xlink" x="0px" y="0px"
	 width="530px" height="530px" viewBox="0 0 530 530" enable-background="new 0 0 530 530" xml:space="preserve">
<g>
	<g>
		<path fill="#FFFFFF" d="M62.666,251.75c35.5,0,40.5-19.5,40.5-37c0-14-2-28-4-42s-4-27.5-4-41.5c0-46,5-65.5,47.5-65.5h10.5v9.5
			h-15c-29.5,0-33.5,34-33.5,61c0,11.5,1.5,23.5,3.5,35.5c2,12.5,3.5,24.5,3.5,38c0.5,32-13.5,48.001-36,54.001v1
			c22.5,5.5,36.5,22.5,36,54.499c0,13.5-1.5,26-3.5,38c-2,12.5-3.5,24-3.5,36c0,28,5.5,60.5,33.5,60.5h15l6.333,9.838l-16.833,0.662
			c-41.5,0-47.5-18-47.5-68.5c0-13.5,2-27.5,4-41s4-27,4-40.499c0-15.5-5-37-40.5-37V251.75L62.666,251.75z"/>
	</g>
	<path fill="none" stroke="#FFFFFF" stroke-width="8" stroke-miterlimit="10" d="M241.35,360.972
		c-30.587,5.505-54.83,20.479-70.757,47.145c-9.981,16.711-15.26,36.012-15.26,55.472"/>
	<path fill="none" stroke="#FFFFFF" stroke-width="8" stroke-miterlimit="10" d="M376,463.588c0.5-52.088-35.5-94.088-86.432-102.86
		"/>
	<ellipse fill="none" stroke="#FFFFFF" stroke-width="8" stroke-miterlimit="10" cx="265.667" cy="361.255" rx="27.667" ry="16"/>
	<path fill="none" stroke="#FFFFFF" stroke-width="8" stroke-miterlimit="10" d="M141.125,355.76
		c0-7.031,22.221-16.859,48.564-12.732c20.417,3.201,48.564,9.078,48.564,12.732c0,7.031-21.438,9.624-48.564,12.731
		C163.126,371.536,141.125,362.791,141.125,355.76z"/>
	<path fill="none" stroke="#FFFFFF" stroke-width="8" stroke-miterlimit="10" d="M389.463,355.434
		c0-7.033-22.221-16.86-48.565-12.731c-20.416,3.198-48.562,9.077-48.562,12.731c0,7.031,21.438,9.623,48.562,12.73
		C367.461,371.209,389.463,362.465,389.463,355.434z"/>
	<g>
		<path fill="#FFFFFF" d="M469.499,251.75v25.501c-35.5,0-40.5,21.5-40.5,37c0,13.499,2,26.999,4,40.499s4,27.5,4,41
			c0,50.5-6,68.5-47.5,68.5l-16.833-0.662l6.333-9.838h15c28,0,33.5-32.5,33.5-60.5c0-12-1.5-23.5-3.5-36c-2-12-3.5-24.5-3.5-38
			c-0.5-31.999,13.5-48.999,36-54.499v-1c-22.5-6-36.5-22.001-36-54.001c0-13.5,1.5-25.5,3.5-38c2-12,3.5-24,3.5-35.5
			c0-27-4-61-33.5-61h-15v-9.5h10.5c42.5,0,47.5,19.5,47.5,65.5c0,14-2,27.5-4,41.5s-4,28-4,42
			C428.999,232.25,433.999,251.75,469.499,251.75L469.499,251.75z"/>
	</g>
</g>
<g>
	<g>
		<path fill="#FFFFFF" d="M225.5,461c0.077-17.828,3.05-38.708,8.892-55.63c1.797-5.207,4.187-10.683,7.616-15.044
			c1.278-1.625,3.138-3.444,4.19-4.165c1.826-1.25,8.833-4.603,9.757-4.63c9.651-0.282,10.722-9.059,1.043-8.776
			c-14.714,0.431-23.238,14.624-28.203,26.76c-7.886,19.272-10.208,40.818-10.297,61.485c-0.041,9.675,6.959,10.671,7.001,1V461z"/>
	</g>
</g>
<g>
	<g>
		<path fill="#FFFFFF" d="M306.191,461.75c0.042,9.671,7.042,8.675,7.001-1c-0.089-20.667-2.411-42.213-10.297-61.485
			c-4.965-12.136-13.489-26.329-28.203-26.76c-9.679-0.282-8.607,8.494,1.044,8.776c0.924,0.027,7.932,3.38,9.757,4.63
			c1.052,0.721,2.912,2.54,4.19,4.165c3.429,4.361,5.819,9.837,7.616,15.044c5.842,16.922,8.814,37.802,8.892,55.63V461.75z"/>
	</g>
</g>
</svg>
