<?xml version="1.0" encoding="utf-8"?>
<!-- Generator: Adobe Illustrator 16.0.4, SVG Export Plug-In . SVG Version: 6.00 Build 0)  -->
<!DOCTYPE svg PUBLIC "-//W3C//DTD SVG 1.1//EN" "http://www.w3.org/Graphics/SVG/1.1/DTD/svg11.dtd">
<svg version="1.1" id="Layer_1" xmlns="http://www.w3.org/2000/svg" xmlns:xlink="http://www.w3.org/1999/xlink" x="0px" y="0px"
	 width="1000px" height="1000px" viewBox="0 0 1000 1000" enable-background="new 0 0 1000 1000" xml:space="preserve">
<g>
	<g>
		<path fill="#FFFFFF" d="M62.215,375.476c27.019,13.136,54.039,26.272,81.058,39.409c56.662,27.547,113.323,55.095,169.985,82.642
			c49.708,24.167,99.417,48.334,149.125,72.501c10.811,5.256,21.622,10.512,32.433,15.768c3.379,1.643,6.668,1.75,10.116,0.147
			c3.524-1.638,7.048-3.275,10.572-4.914c41.269-19.18,82.537-38.359,123.806-57.539c59.019-27.429,118.036-54.858,177.055-82.288
			c42.469-19.738,84.938-39.476,127.407-59.213c4.671-2.171,9.343-4.342,14.014-6.513c8.766-4.074,1.142-17.001-7.57-12.952
			c-26.482,12.308-52.964,24.615-79.446,36.923c-56.579,26.295-113.159,52.591-169.739,78.887
			c-52.378,24.343-104.756,48.686-157.134,73.029c-15.894,7.387-31.787,14.773-47.681,22.161c2.523,0,5.047,0,7.57,0
			c-27.019-13.137-54.039-26.272-81.058-39.409c-56.662-27.547-113.323-55.095-169.985-82.642
			c-49.708-24.167-99.417-48.334-149.125-72.501c-11.277-5.483-22.555-10.965-33.832-16.448
			C61.125,358.313,53.516,371.247,62.215,375.476L62.215,375.476z"/>
	</g>
</g>
<g>
	<g>
		<path fill="#FFFFFF" d="M946.5,751c0,5.329-0.345,10.656-0.864,15.958c-0.106,1.084-0.227,2.167-0.351,3.248
			c-0.063,0.554-0.514,4.037-0.246,2.07c-0.374,2.753-0.818,5.496-1.307,8.23c-1.066,5.957-2.442,11.855-4.09,17.678
			c-7.614,26.903-22.652,52.034-48.143,66.005c-26.151,14.333-57.846,11.311-86.717,11.311c-45.198,0-90.396,0-135.594,0
			c-63.065,0-126.132,0-189.198,0c-64.69,0-129.38,0-194.071,0c-50.071,0-100.142,0-150.212,0c-14.477,0-28.954,0-43.431,0
			c-3.681,0-16.569,2.054-18.434-2.701c-0.729-1.859-0.344-4.481-0.344-6.425c0-4.655,0-9.312,0-13.967c0-17.223,0-34.445,0-51.667
			c0-56.026,0-112.052,0-168.077c0-65.63,0-131.26,0-196.89c0-52.23,0-104.46,0-156.69c0-13.901,0-27.802,0-41.704
			c0-17.336,0.934-34.417,6.637-51.013c5.063-14.735,14.001-27.439,25.758-37.494c9.33-7.979,21.473-14.035,32.773-17.794
			c5.307-1.765,10.74-3.142,16.224-4.235c2.28-0.455,4.574-0.839,6.874-1.181c2.035-0.303-0.935,0.097,1.646-0.22
			c1.106-0.136,2.215-0.252,3.324-0.362c3.801-0.374,7.62-0.582,11.439-0.582c22.463,0,44.925,0,67.388,0
			c51.945,0,103.891,0,155.836,0c65.184,0,130.368,0,195.551,0c62.179,0,124.358,0,186.537,0c42.93,0,85.859,0,128.789,0
			c9.171,0,18.341,0,27.511,0c3.081,0,6.715,0.356,6.715,4.553c0,2.059,0,4.118,0,6.176c0,35.921,0,71.841,0,107.762
			c0,61.837,0,123.674,0,185.511c0,63.246,0,126.493,0,189.739c0,40.147,0,80.296,0,120.444C946.5,742.79,946.5,746.895,946.5,751
			c0,9.673,15,9.673,15,0c0-24.497,0-48.994,0-73.491c0-57.153,0-114.306,0-171.459c0-65.302,0-130.604,0-195.905
			c0-48.943,0-97.886,0-146.83c0-10.679,0-21.357,0-32.036c0-9.591-4.441-17.262-13.714-20.899c-2.85-1.118-6.322-0.88-9.38-0.88
			c-28.969,0-57.937,0-86.905,0c-55.526,0-111.054,0-166.581,0c-65.842,0-131.684,0-197.525,0c-59.913,0-119.826,0-179.738,0
			c-37.74,0-75.48,0-113.22,0c-22.363,0-43.955,0.996-65.294,9.084c-29.873,11.323-52.715,33.52-63.469,63.795
			c-6.23,17.541-7.173,36.082-7.173,54.504c0,36.539,0,73.077,0,109.615c0,61.67,0,123.341,0,185.011c0,63.799,0,127.597,0,191.395
			c0,42.922,0,85.844,0,128.766c0,6.444,0,12.888,0,19.331c0,11.704,9.884,19.5,20.943,19.5c2.983,0,5.966,0,8.948,0
			c34.47,0,68.939,0,103.408,0c58.348,0,116.696,0,175.044,0c65.982,0,131.965,0,197.948,0c57.373,0,114.746,0,172.119,0
			c32.521,0,65.041,0,97.561,0c15.859,0,31.623-0.918,46.872-5.791c31.409-10.038,53.82-34.559,66.382-64.375
			c9.104-21.611,13.773-45.862,13.775-69.334C961.501,741.327,946.501,741.327,946.5,751z"/>
	</g>
</g>
</svg>
