<?xml version="1.0" encoding="utf-8"?>
<!-- Generator: Adobe Illustrator 16.0.4, SVG Export Plug-In . SVG Version: 6.00 Build 0)  -->
<!DOCTYPE svg PUBLIC "-//W3C//DTD SVG 1.1//EN" "http://www.w3.org/Graphics/SVG/1.1/DTD/svg11.dtd">
<svg version="1.1" id="Layer_1" xmlns="http://www.w3.org/2000/svg" xmlns:xlink="http://www.w3.org/1999/xlink" x="0px" y="0px"
	 width="1000px" height="1000px" viewBox="0 0 1000 1000" enable-background="new 0 0 1000 1000" xml:space="preserve">
<g>
	<g>
		<path fill="#FFFFFF" d="M87.455,150.337c18.188,26.199,41.761,49.398,65.501,70.455c56.373,50,122.713,88.417,194.32,111.941
			c49.264,16.183,100.935,24.763,152.724,26.492c5.043,0.168,8.305-4.897,7.232-9.494c-0.274-1.174-0.5-2.36-0.723-3.544
			c-0.253-1.341-0.482-2.686-0.702-4.033c-0.138-0.842-0.267-1.687-0.394-2.531c-0.069-0.462-0.135-0.925-0.201-1.388
			c-0.312-2.174,0.117,0.938-0.07-0.494c-1.526-11.624-2.136-23.367-1.997-35.086c0.404-34.143,8.282-68.354,26.052-97.821
			c25.157-41.719,69.817-68.646,116.978-78.025c44.789-8.908,93.131-0.769,133.868,19.336c10.005,4.938,20.062,10.849,28.695,17.652
			c3.726,2.937,7.259,6.12,10.528,9.558c3.166,3.33,3.906,4.218,6.12,8.016c1.666,2.858,5.258,4.4,8.47,3.446
			c23.679-7.035,47.185-14.841,70.313-23.512c14.85-5.567,29.988-11.338,43.751-19.301c4.711-2.726,9.374-5.892,12.611-10.333
			c1.153-1.582-1.182,1.257,0.238-0.279c0.447-0.483,1.331-0.999-0.88,0.614c-0.918,0.669-3.555,0.775-5.062,0.544
			c-2.514-0.386-4.323-3.063-4.766-4.589c0.283,0.975-0.23-2.339-0.176-1.215c0.013,0.256-0.004,0.513-0.017,0.769
			c-0.091,1.784,0.287-1.75,0.075-0.378c-2.438,15.754-11.412,30.469-20.021,44.033c-14.421,22.724-33.675,42.591-57.021,56.152
			c-7.489,4.35-2.419,15.689,5.779,13.708c37.104-8.967,74.207-17.935,111.311-26.902c-2.433-4.178-4.865-8.357-7.298-12.535
			c-12.973,15.479-26.457,30.557-40.243,45.313c-10.717,11.47-21.693,22.729-33.268,33.339c-4.671,4.282-10.223,9.094-14.685,12.434
			c-2.168,1.623-4.403,3.154-6.709,4.573c-0.901,0.555-1.825,1.07-2.758,1.568c-0.511,0.273-1.033,0.524-1.556,0.774
			c-1.701,0.812,1.501-0.574-0.162,0.07c-2.822,1.093-5.973,3.755-5.506,7.232c3.223,24.006,2.164,49.023,0.332,73.065
			c-2.021,26.515-5.87,51.111-11.932,77.598c-7.433,32.481-17.815,64.364-31.053,94.945
			c-34.699,80.161-88.53,150.399-154.21,207.691c-82.119,71.633-182.385,126.05-291.688,139.022
			c-81.582,9.684-164.027-4.095-239.827-34.977c-40.938-16.68-78.505-38.958-115.077-63.527c-1.019-0.685-2.043-1.426-3.151-1.964
			c-5.515-2.684-14.145,1.291-11.535,8.455c2.525,6.934,10.694,6.627,16.849,6.962c23.623,1.29,47.577-0.327,71.1-2.42
			c34.809-3.098,69.61-8.405,103.399-17.431c32.062-8.563,64.463-20.73,90.49-41.834c9.074-7.357,17.05-16.232,23.035-26.285
			c3.105-5.216-0.993-10.824-6.476-11.285c-1.031-0.087-2.06-0.203-3.087-0.321c-1.169-0.134-2.336-0.281-3.503-0.435
			c2.907,0.383,0.072,0.006-0.594-0.089c-0.988-0.141-1.975-0.289-2.961-0.44c-10.139-1.557-20.193-3.661-30.134-6.179
			c-29.144-7.383-57.076-18.57-81.919-35.687c-30.257-20.849-51.693-51.222-58.501-87.55c-2.411,3.165-4.821,6.329-7.232,9.494
			c13.598,1.536,27.338,2.284,41.018,2.383c10.438,0.075,20.884-0.42,31.196-2.106c7.255-1.187,16.124-3.425,21.021-9.37
			c3.242-3.937,2.756-11.4-3.31-12.536c-2.999-0.561-5.962-1.373-8.896-2.201c-3.379-0.955-6.726-2.024-10.046-3.168
			c-1.962-0.676-3.912-1.39-5.853-2.124c-1.051-0.398-2.097-0.809-3.142-1.223c-0.64-0.254-4.129-1.696-2.599-1.05
			c-24.071-10.171-45.727-24.373-63.991-42.567c-36.064-35.929-52.939-85.079-55.14-135.262c-3.762,2.159-7.523,4.317-11.285,6.476
			c9.723,6.349,20.263,11.62,30.898,16.235c18.837,8.175,40.042,14.971,60.818,12.375c5.831-0.729,10.774-7.959,5.303-12.803
			c-12.673-11.22-24.255-24.784-34.254-37.922c-21.939-28.83-39.46-61.579-46.902-97.249c-8.91-42.711,1.233-85.328,25.436-121.258
			c5.421-8.048-7.58-15.545-12.952-7.57c-26.144,38.811-36.071,84.438-27.417,130.449c6.862,36.482,24.749,70.575,46.649,100.219
			c11.526,15.601,24.261,31.035,38.834,43.938c1.768-4.268,3.536-8.536,5.303-12.803c-19.037,2.378-38.304-3.729-55.546-11.333
			c-9.838-4.338-19.583-9.343-28.6-15.229c-4.68-3.056-11.528,0.928-11.285,6.476c1.819,41.48,12.547,82.59,35.953,117.261
			c17.121,25.36,40.261,46.214,66.66,61.567c17.664,10.274,37.812,19.44,58.066,23.231c-1.104-4.179-2.207-8.357-3.31-12.536
			c-1.396,1.696-2.784,2.406-4.864,3.167c-3.644,1.333-7.516,2.045-11.339,2.632c-8.904,1.367-19.163,1.381-28.557,1.252
			c-12.628-0.173-25.315-0.932-37.868-2.35c-5.22-0.59-8.037,5.199-7.232,9.494c6.886,36.746,27.959,67.923,57.313,90.587
			c24.917,19.238,54.421,32.049,84.543,40.687c17.294,4.959,35.335,8.927,53.306,10.438c-2.159-3.762-4.317-7.523-6.476-11.285
			c-14.629,24.572-42.825,39.696-69.669,50.026c-32.887,12.654-67.882,19.747-102.698,24.56c-28.284,3.91-56.956,6.082-85.513,6.272
			c-7.604,0.051-15.312,0.092-22.88-0.765c-1.684-0.19,2.235,0.346,0.35,0.043c-0.358-0.058-0.714-0.128-1.067-0.21
			c-0.251-0.058-0.499-0.131-0.74-0.222c6.14,2.313,7.123,14.214-2.362,14.253c-0.524,0.003-4.286-1.416-2.878-0.617
			c0.561,0.318,1.101,0.674,1.64,1.026c12.247,8.009,24.196,16.392,36.713,23.998c23.927,14.54,48.914,27.328,74.688,38.263
			c74.926,31.785,156.557,47.233,237.923,40.397c110.741-9.302,211.672-59.803,297.299-128.791
			c69.98-56.382,128.43-127.216,167.336-208.407c27.585-57.566,45.172-119.601,51.992-183.056
			c3.097-28.816,4.54-58.608,1.209-87.498c-0.039-0.335-0.078-0.67-0.123-1.005c-1.835,2.411-3.671,4.821-5.506,7.232
			c11.204-4.341,20.64-12.709,29.51-20.588c12.184-10.822,23.57-22.549,34.729-34.411c14.341-15.245,28.314-30.887,41.76-46.93
			c4.729-5.643,0.364-14.387-7.298-12.535c-37.104,8.967-74.207,17.935-111.311,26.902c1.927,4.569,3.854,9.139,5.779,13.708
			c34.668-20.137,62.024-53.468,77.609-90.235c2.27-5.356,4.433-10.792,5.821-16.454c0.863-3.522,1.995-8.647-0.355-11.887
			c-4.634-6.388-11.392-3.771-15.321,1.515c-1.023,1.375,1.167-1.206-0.544,0.604c-0.663,0.701-1.407,1.323-2.153,1.932
			c1.566-1.277-1.281,0.871-1.766,1.194c-1.312,0.875-2.67,1.68-4.035,2.47c-20.321,11.758-43.509,19.181-65.621,26.74
			c-14.652,5.008-29.396,9.792-44.241,14.203c2.823,1.149,5.646,2.298,8.47,3.446c-7.131-12.236-19.128-21.445-30.721-29.155
			c-16.602-11.041-35.232-19.18-54.178-25.238c-47.511-15.191-100.135-15.117-146.687,3.415
			c-43.482,17.311-80.062,49.234-99.795,91.968c-14.177,30.702-19.655,64.883-18.729,98.545c0.369,13.421,1.48,27.269,4.54,40.383
			c2.411-3.165,4.821-6.329,7.232-9.494c-90.828-3.031-179.408-28.942-257.254-75.855c-47.762-28.783-91.573-65.045-127.889-107.436
			c-2.274-2.655-4.511-5.342-6.711-8.059c-0.893-1.102-1.777-2.21-2.655-3.324c-0.386-0.489-0.769-0.98-1.152-1.472
			c-1.063-1.365,1.241,1.617-0.023-0.032c-1.332-1.736-2.66-3.482-3.908-5.28C94.933,134.881,81.923,142.369,87.455,150.337z"/>
	</g>
</g>
</svg>
